<svg width="478" height="375" viewBox="0 0 478 375" fill="none" xmlns="http://www.w3.org/2000/svg">
<rect width="478" height="375" fill="#C8A96E"/>
<path d="M204.75 158.625C214.07 158.625 221.625 151.07 221.625 141.75C221.625 132.43 214.07 124.875 204.75 124.875C195.43 124.875 187.875 132.43 187.875 141.75C187.875 151.07 195.43 158.625 204.75 158.625Z" stroke="white" stroke-width="2" stroke-linecap="round" stroke-linejoin="round"/>
<path d="M216.675 153.675L238.5 175.5" stroke="white" stroke-width="2" stroke-linecap="round" stroke-linejoin="round"/>
<path d="M283.5 130.5L216.675 197.325" stroke="white" stroke-width="2" stroke-linecap="round" stroke-linejoin="round"/>
<path d="M204.75 226.125C214.07 226.125 221.625 218.57 221.625 209.25C221.625 199.93 214.07 192.375 204.75 192.375C195.43 192.375 187.875 199.93 187.875 209.25C187.875 218.57 195.43 226.125 204.75 226.125Z" stroke="white" stroke-width="2" stroke-linecap="round" stroke-linejoin="round"/>
<path d="M254.25 191.25L283.5 220.5" stroke="white" stroke-width="2" stroke-linecap="round" stroke-linejoin="round"/>
</svg>
